<?xml version="1.0" encoding="UTF-8" standalone="no"?>
<!DOCTYPE svg PUBLIC "-//W3C//DTD SVG 1.1//EN"
 "http://www.w3.org/Graphics/SVG/1.1/DTD/svg11.dtd">
<!-- Generated by graphviz version 2.36.0 (20140111.2315)
 -->
<!-- Title: controllers_diagram Pages: 1 -->
<svg width="879pt" height="471pt"
 viewBox="0.00 0.00 879.05 471.00" xmlns="http://www.w3.org/2000/svg" xmlns:xlink="http://www.w3.org/1999/xlink">
<g id="graph0" class="graph" transform="scale(1 1) rotate(0) translate(4 467)">
<title>controllers_diagram</title>
<polygon fill="white" stroke="none" points="-4,4 -4,-467 875.05,-467 875.05,4 -4,4"/>
<!-- _diagram_info -->
<g id="node1" class="node"><title>_diagram_info</title>
<text text-anchor="start" x="287" y="-120.6" font-family="Times,serif" font-size="13.00">Controllers diagram</text>
<text text-anchor="start" x="287" y="-107.6" font-family="Times,serif" font-size="13.00">Date: Mar 02 2014 &#45; 01:04</text>
<text text-anchor="start" x="287" y="-94.6" font-family="Times,serif" font-size="13.00">Migration version: 20140227182652</text>
<text text-anchor="start" x="287" y="-81.6" font-family="Times,serif" font-size="13.00">Generated by RailRoady 1.1.1</text>
<text text-anchor="start" x="287" y="-68.6" font-family="Times,serif" font-size="13.00">http://railroady.prestonlee.com</text>
</g>
<!-- ApplicationController -->
<g id="node2" class="node"><title>ApplicationController</title>
<path fill="none" stroke="black" d="M12,-119.604C12,-119.604 127.642,-119.604 127.642,-119.604 133.642,-119.604 139.642,-125.604 139.642,-131.604 139.642,-131.604 139.642,-211.604 139.642,-211.604 139.642,-217.604 133.642,-223.604 127.642,-223.604 127.642,-223.604 12,-223.604 12,-223.604 6,-223.604 0,-217.604 0,-211.604 0,-211.604 0,-131.604 0,-131.604 0,-125.604 6,-119.604 12,-119.604"/>
<text text-anchor="middle" x="69.8208" y="-208.404" font-family="Times,serif" font-size="14.00">ApplicationController</text>
<polyline fill="none" stroke="black" points="0,-201.604 139.642,-201.604 "/>
<polyline fill="none" stroke="black" points="0,-177.604 139.642,-177.604 "/>
<text text-anchor="start" x="8" y="-162.404" font-family="Times,serif" font-size="14.00">initialize_cart</text>
<text text-anchor="start" x="8" y="-148.404" font-family="Times,serif" font-size="14.00">instagram_client</text>
<polyline fill="none" stroke="black" points="0,-141.604 139.642,-141.604 "/>
<text text-anchor="start" x="8" y="-126.404" font-family="Times,serif" font-size="14.00">_layout</text>
</g>
<!-- CartsController -->
<g id="node3" class="node"><title>CartsController</title>
<path fill="none" stroke="black" d="M255.017,-172.815C255.017,-172.815 334.114,-172.815 334.114,-172.815 340.114,-172.815 346.114,-178.815 346.114,-184.815 346.114,-184.815 346.114,-292.815 346.114,-292.815 346.114,-298.815 340.114,-304.815 334.114,-304.815 334.114,-304.815 255.017,-304.815 255.017,-304.815 249.017,-304.815 243.017,-298.815 243.017,-292.815 243.017,-292.815 243.017,-184.815 243.017,-184.815 243.017,-178.815 249.017,-172.815 255.017,-172.815"/>
<text text-anchor="middle" x="294.565" y="-289.615" font-family="Times,serif" font-size="14.00">CartsController</text>
<polyline fill="none" stroke="black" points="243.017,-282.815 346.114,-282.815 "/>
<text text-anchor="start" x="251.017" y="-267.615" font-family="Times,serif" font-size="14.00">index</text>
<text text-anchor="start" x="251.017" y="-253.615" font-family="Times,serif" font-size="14.00">remove</text>
<text text-anchor="start" x="251.017" y="-239.615" font-family="Times,serif" font-size="14.00">update</text>
<polyline fill="none" stroke="black" points="243.017,-232.815 346.114,-232.815 "/>
<polyline fill="none" stroke="black" points="243.017,-208.815 346.114,-208.815 "/>
<text text-anchor="start" x="251.017" y="-193.615" font-family="Times,serif" font-size="14.00">_layout</text>
<text text-anchor="start" x="251.017" y="-179.615" font-family="Times,serif" font-size="14.00">update_cart</text>
</g>
<!-- ApplicationController&#45;&gt;CartsController -->
<g id="edge1" class="edge"><title>ApplicationController&#45;&gt;CartsController</title>
<path fill="none" stroke="black" d="M139.699,-192.502C173.073,-202.482 212.311,-214.217 242.94,-223.376"/>
</g>
<!-- HomeController -->
<g id="node4" class="node"><title>HomeController</title>
<path fill="none" stroke="black" d="M132.067,-0.5C132.067,-0.5 215.826,-0.5 215.826,-0.5 221.826,-0.5 227.826,-6.5 227.826,-12.5 227.826,-12.5 227.826,-78.5 227.826,-78.5 227.826,-84.5 221.826,-90.5 215.826,-90.5 215.826,-90.5 132.067,-90.5 132.067,-90.5 126.067,-90.5 120.067,-84.5 120.067,-78.5 120.067,-78.5 120.067,-12.5 120.067,-12.5 120.067,-6.5 126.067,-0.5 132.067,-0.5"/>
<text text-anchor="middle" x="173.946" y="-75.3" font-family="Times,serif" font-size="14.00">HomeController</text>
<polyline fill="none" stroke="black" points="120.067,-68.5 227.826,-68.5 "/>
<text text-anchor="start" x="128.067" y="-53.3" font-family="Times,serif" font-size="14.00">index</text>
<polyline fill="none" stroke="black" points="120.067,-46.5 227.826,-46.5 "/>
<polyline fill="none" stroke="black" points="120.067,-22.5 227.826,-22.5 "/>
<text text-anchor="start" x="128.067" y="-7.3" font-family="Times,serif" font-size="14.00">_layout</text>
</g>
<!-- ApplicationController&#45;&gt;HomeController -->
<g id="edge2" class="edge"><title>ApplicationController&#45;&gt;HomeController</title>
<path fill="none" stroke="black" d="M112.774,-119.585C120.729,-109.951 128.976,-99.9621 136.743,-90.5564"/>
</g>
<!-- ProductsController -->
<g id="node5" class="node"><title>ProductsController</title>
<path fill="none" stroke="black" d="M55.0409,-254.539C55.0409,-254.539 153.586,-254.539 153.586,-254.539 159.586,-254.539 165.586,-260.539 165.586,-266.539 165.586,-266.539 165.586,-402.539 165.586,-402.539 165.586,-408.539 159.586,-414.539 153.586,-414.539 153.586,-414.539 55.0409,-414.539 55.0409,-414.539 49.0409,-414.539 43.0409,-408.539 43.0409,-402.539 43.0409,-402.539 43.0409,-266.539 43.0409,-266.539 43.0409,-260.539 49.0409,-254.539 55.0409,-254.539"/>
<text text-anchor="middle" x="104.313" y="-399.339" font-family="Times,serif" font-size="14.00">ProductsController</text>
<polyline fill="none" stroke="black" points="43.0409,-392.539 165.586,-392.539 "/>
<text text-anchor="start" x="51.0409" y="-377.339" font-family="Times,serif" font-size="14.00">create</text>
<text text-anchor="start" x="51.0409" y="-363.339" font-family="Times,serif" font-size="14.00">edit</text>
<text text-anchor="start" x="51.0409" y="-349.339" font-family="Times,serif" font-size="14.00">new</text>
<text text-anchor="start" x="51.0409" y="-335.339" font-family="Times,serif" font-size="14.00">update</text>
<polyline fill="none" stroke="black" points="43.0409,-328.539 165.586,-328.539 "/>
<polyline fill="none" stroke="black" points="43.0409,-304.539 165.586,-304.539 "/>
<text text-anchor="start" x="51.0409" y="-289.339" font-family="Times,serif" font-size="14.00">_layout</text>
<text text-anchor="start" x="51.0409" y="-275.339" font-family="Times,serif" font-size="14.00">product_length</text>
<text text-anchor="start" x="51.0409" y="-261.339" font-family="Times,serif" font-size="14.00">product_params</text>
</g>
<!-- ApplicationController&#45;&gt;ProductsController -->
<g id="edge3" class="edge"><title>ApplicationController&#45;&gt;ProductsController</title>
<path fill="none" stroke="black" d="M80.8293,-223.606C82.9192,-233.478 85.1503,-244.017 87.3745,-254.524"/>
</g>
<!-- Users::OmniauthCallbacksController -->
<g id="node6" class="node"><title>Users::OmniauthCallbacksController</title>
<path fill="none" stroke="black" d="M353,-372.5C353,-372.5 553.407,-372.5 553.407,-372.5 559.407,-372.5 565.407,-378.5 565.407,-384.5 565.407,-384.5 565.407,-450.5 565.407,-450.5 565.407,-456.5 559.407,-462.5 553.407,-462.5 553.407,-462.5 353,-462.5 353,-462.5 347,-462.5 341,-456.5 341,-450.5 341,-450.5 341,-384.5 341,-384.5 341,-378.5 347,-372.5 353,-372.5"/>
<text text-anchor="middle" x="453.204" y="-447.3" font-family="Times,serif" font-size="14.00">Users::OmniauthCallbacksController</text>
<polyline fill="none" stroke="black" points="341,-440.5 565.407,-440.5 "/>
<text text-anchor="start" x="349" y="-425.3" font-family="Times,serif" font-size="14.00">instagram</text>
<polyline fill="none" stroke="black" points="341,-418.5 565.407,-418.5 "/>
<polyline fill="none" stroke="black" points="341,-394.5 565.407,-394.5 "/>
<text text-anchor="start" x="349" y="-379.3" font-family="Times,serif" font-size="14.00">_layout</text>
</g>
<!-- Devise::OmniauthCallbacksController -->
<g id="node7" class="node"><title>Devise::OmniauthCallbacksController</title>
<ellipse fill="none" stroke="black" cx="724.88" cy="-417.5" rx="146.34" ry="18"/>
<text text-anchor="middle" x="724.88" y="-413.3" font-family="Times,serif" font-size="14.00">Devise::OmniauthCallbacksController</text>
</g>
<!-- Devise::OmniauthCallbacksController&#45;&gt;Users::OmniauthCallbacksController -->
<g id="edge4" class="edge"><title>Devise::OmniauthCallbacksController&#45;&gt;Users::OmniauthCallbacksController</title>
<path fill="none" stroke="black" d="M578.704,-417.5C574.308,-417.5 569.927,-417.5 565.579,-417.5"/>
</g>
</g>
</svg>
