<?xml version="1.0" encoding="UTF-8" standalone="no"?>
<!DOCTYPE svg PUBLIC "-//W3C//DTD SVG 1.1//EN"
 "http://www.w3.org/Graphics/SVG/1.1/DTD/svg11.dtd">
<!-- Generated by graphviz version 2.36.0 (20140111.2315)
 -->
<!-- Title: controllers_diagram Pages: 1 -->
<svg width="857pt" height="447pt"
 viewBox="0.00 0.00 857.05 447.00" xmlns="http://www.w3.org/2000/svg" xmlns:xlink="http://www.w3.org/1999/xlink">
<g id="graph0" class="graph" transform="scale(1 1) rotate(0) translate(4 443)">
<title>controllers_diagram</title>
<polygon fill="white" stroke="none" points="-4,4 -4,-443 853.05,-443 853.05,4 -4,4"/>
<!-- _diagram_info -->
<g id="node1" class="node"><title>_diagram_info</title>
<text text-anchor="start" x="240" y="-87.6" font-family="Times,serif" font-size="13.00">Controllers diagram</text>
<text text-anchor="start" x="240" y="-74.6" font-family="Times,serif" font-size="13.00">Date: Mar 02 2014 &#45; 15:36</text>
<text text-anchor="start" x="240" y="-61.6" font-family="Times,serif" font-size="13.00">Migration version: 20140302044938</text>
<text text-anchor="start" x="240" y="-48.6" font-family="Times,serif" font-size="13.00">Generated by RailRoady 1.1.1</text>
<text text-anchor="start" x="240" y="-35.6" font-family="Times,serif" font-size="13.00">http://railroady.prestonlee.com</text>
</g>
<!-- ApplicationController -->
<g id="node2" class="node"><title>ApplicationController</title>
<path fill="none" stroke="black" d="M12,-120.973C12,-120.973 127.642,-120.973 127.642,-120.973 133.642,-120.973 139.642,-126.973 139.642,-132.973 139.642,-132.973 139.642,-198.973 139.642,-198.973 139.642,-204.973 133.642,-210.973 127.642,-210.973 127.642,-210.973 12,-210.973 12,-210.973 6,-210.973 1.42109e-14,-204.973 1.42109e-14,-198.973 1.42109e-14,-198.973 1.42109e-14,-132.973 1.42109e-14,-132.973 1.42109e-14,-126.973 6,-120.973 12,-120.973"/>
<text text-anchor="middle" x="69.8208" y="-195.773" font-family="Times,serif" font-size="14.00">ApplicationController</text>
<polyline fill="none" stroke="black" points="1.42109e-14,-188.973 139.642,-188.973 "/>
<polyline fill="none" stroke="black" points="1.42109e-14,-164.973 139.642,-164.973 "/>
<text text-anchor="start" x="8" y="-149.773" font-family="Times,serif" font-size="14.00">instagram_client</text>
<polyline fill="none" stroke="black" points="1.42109e-14,-142.973 139.642,-142.973 "/>
<text text-anchor="start" x="8" y="-127.773" font-family="Times,serif" font-size="14.00">_layout</text>
</g>
<!-- CartsController -->
<g id="node3" class="node"><title>CartsController</title>
<path fill="none" stroke="black" d="M224.449,-150.577C224.449,-150.577 303.546,-150.577 303.546,-150.577 309.546,-150.577 315.546,-156.577 315.546,-162.577 315.546,-162.577 315.546,-270.577 315.546,-270.577 315.546,-276.577 309.546,-282.577 303.546,-282.577 303.546,-282.577 224.449,-282.577 224.449,-282.577 218.449,-282.577 212.449,-276.577 212.449,-270.577 212.449,-270.577 212.449,-162.577 212.449,-162.577 212.449,-156.577 218.449,-150.577 224.449,-150.577"/>
<text text-anchor="middle" x="263.998" y="-267.377" font-family="Times,serif" font-size="14.00">CartsController</text>
<polyline fill="none" stroke="black" points="212.449,-260.577 315.546,-260.577 "/>
<text text-anchor="start" x="220.449" y="-245.377" font-family="Times,serif" font-size="14.00">index</text>
<text text-anchor="start" x="220.449" y="-231.377" font-family="Times,serif" font-size="14.00">remove</text>
<text text-anchor="start" x="220.449" y="-217.377" font-family="Times,serif" font-size="14.00">update</text>
<polyline fill="none" stroke="black" points="212.449,-210.577 315.546,-210.577 "/>
<polyline fill="none" stroke="black" points="212.449,-186.577 315.546,-186.577 "/>
<text text-anchor="start" x="220.449" y="-171.377" font-family="Times,serif" font-size="14.00">_layout</text>
<text text-anchor="start" x="220.449" y="-157.377" font-family="Times,serif" font-size="14.00">update_cart</text>
</g>
<!-- ApplicationController&#45;&gt;CartsController -->
<g id="edge1" class="edge"><title>ApplicationController&#45;&gt;CartsController</title>
<path fill="none" stroke="black" d="M139.649,-184.171C163.678,-190.433 190.131,-197.327 212.438,-203.14"/>
</g>
<!-- HomeController -->
<g id="node4" class="node"><title>HomeController</title>
<path fill="none" stroke="black" d="M98.4235,-0.5C98.4235,-0.5 182.182,-0.5 182.182,-0.5 188.182,-0.5 194.182,-6.5 194.182,-12.5 194.182,-12.5 194.182,-78.5 194.182,-78.5 194.182,-84.5 188.182,-90.5 182.182,-90.5 182.182,-90.5 98.4235,-90.5 98.4235,-90.5 92.4235,-90.5 86.4235,-84.5 86.4235,-78.5 86.4235,-78.5 86.4235,-12.5 86.4235,-12.5 86.4235,-6.5 92.4235,-0.5 98.4235,-0.5"/>
<text text-anchor="middle" x="140.303" y="-75.3" font-family="Times,serif" font-size="14.00">HomeController</text>
<polyline fill="none" stroke="black" points="86.4235,-68.5 194.182,-68.5 "/>
<text text-anchor="start" x="94.4235" y="-53.3" font-family="Times,serif" font-size="14.00">index</text>
<polyline fill="none" stroke="black" points="86.4235,-46.5 194.182,-46.5 "/>
<polyline fill="none" stroke="black" points="86.4235,-22.5 194.182,-22.5 "/>
<text text-anchor="start" x="94.4235" y="-7.3" font-family="Times,serif" font-size="14.00">_layout</text>
</g>
<!-- ApplicationController&#45;&gt;HomeController -->
<g id="edge2" class="edge"><title>ApplicationController&#45;&gt;HomeController</title>
<path fill="none" stroke="black" d="M96.2663,-120.771C102.047,-110.889 108.166,-100.431 113.944,-90.5552"/>
</g>
<!-- PacksController -->
<g id="node5" class="node"><title>PacksController</title>
<path fill="none" stroke="black" d="M38.6684,-227.838C38.6684,-227.838 136.42,-227.838 136.42,-227.838 142.42,-227.838 148.42,-233.838 148.42,-239.838 148.42,-239.838 148.42,-375.838 148.42,-375.838 148.42,-381.838 142.42,-387.838 136.42,-387.838 136.42,-387.838 38.6684,-387.838 38.6684,-387.838 32.6684,-387.838 26.6684,-381.838 26.6684,-375.838 26.6684,-375.838 26.6684,-239.838 26.6684,-239.838 26.6684,-233.838 32.6684,-227.838 38.6684,-227.838"/>
<text text-anchor="middle" x="87.5444" y="-372.638" font-family="Times,serif" font-size="14.00">PacksController</text>
<polyline fill="none" stroke="black" points="26.6684,-365.838 148.42,-365.838 "/>
<text text-anchor="start" x="34.6684" y="-350.638" font-family="Times,serif" font-size="14.00">create</text>
<text text-anchor="start" x="34.6684" y="-336.638" font-family="Times,serif" font-size="14.00">edit</text>
<text text-anchor="start" x="34.6684" y="-322.638" font-family="Times,serif" font-size="14.00">new</text>
<text text-anchor="start" x="34.6684" y="-308.638" font-family="Times,serif" font-size="14.00">update</text>
<polyline fill="none" stroke="black" points="26.6684,-301.838 148.42,-301.838 "/>
<polyline fill="none" stroke="black" points="26.6684,-277.838 148.42,-277.838 "/>
<text text-anchor="start" x="34.6684" y="-262.638" font-family="Times,serif" font-size="14.00">_layout</text>
<text text-anchor="start" x="34.6684" y="-248.638" font-family="Times,serif" font-size="14.00">pack_items_length</text>
<text text-anchor="start" x="34.6684" y="-234.638" font-family="Times,serif" font-size="14.00">pack_params</text>
</g>
<!-- ApplicationController&#45;&gt;PacksController -->
<g id="edge3" class="edge"><title>ApplicationController&#45;&gt;PacksController</title>
<path fill="none" stroke="black" d="M75.4774,-211.25C76.146,-216.602 76.8428,-222.179 77.5493,-227.834"/>
</g>
<!-- Users::OmniauthCallbacksController -->
<g id="node6" class="node"><title>Users::OmniauthCallbacksController</title>
<path fill="none" stroke="black" d="M331,-348.5C331,-348.5 531.407,-348.5 531.407,-348.5 537.407,-348.5 543.407,-354.5 543.407,-360.5 543.407,-360.5 543.407,-426.5 543.407,-426.5 543.407,-432.5 537.407,-438.5 531.407,-438.5 531.407,-438.5 331,-438.5 331,-438.5 325,-438.5 319,-432.5 319,-426.5 319,-426.5 319,-360.5 319,-360.5 319,-354.5 325,-348.5 331,-348.5"/>
<text text-anchor="middle" x="431.204" y="-423.3" font-family="Times,serif" font-size="14.00">Users::OmniauthCallbacksController</text>
<polyline fill="none" stroke="black" points="319,-416.5 543.407,-416.5 "/>
<text text-anchor="start" x="327" y="-401.3" font-family="Times,serif" font-size="14.00">instagram</text>
<polyline fill="none" stroke="black" points="319,-394.5 543.407,-394.5 "/>
<polyline fill="none" stroke="black" points="319,-370.5 543.407,-370.5 "/>
<text text-anchor="start" x="327" y="-355.3" font-family="Times,serif" font-size="14.00">_layout</text>
</g>
<!-- Devise::OmniauthCallbacksController -->
<g id="node7" class="node"><title>Devise::OmniauthCallbacksController</title>
<ellipse fill="none" stroke="black" cx="702.88" cy="-393.5" rx="146.34" ry="18"/>
<text text-anchor="middle" x="702.88" y="-389.3" font-family="Times,serif" font-size="14.00">Devise::OmniauthCallbacksController</text>
</g>
<!-- Devise::OmniauthCallbacksController&#45;&gt;Users::OmniauthCallbacksController -->
<g id="edge4" class="edge"><title>Devise::OmniauthCallbacksController&#45;&gt;Users::OmniauthCallbacksController</title>
<path fill="none" stroke="black" d="M556.704,-393.5C552.308,-393.5 547.927,-393.5 543.579,-393.5"/>
</g>
</g>
</svg>
