<?xml version="1.0" encoding="UTF-8" standalone="no"?>
<!DOCTYPE svg PUBLIC "-//W3C//DTD SVG 1.1//EN"
 "http://www.w3.org/Graphics/SVG/1.1/DTD/svg11.dtd">
<!-- Generated by graphviz version 2.36.0 (20140111.2315)
 -->
<!-- Title: models_diagram Pages: 1 -->
<svg width="559pt" height="316pt"
 viewBox="0.00 0.00 559.00 316.00" xmlns="http://www.w3.org/2000/svg" xmlns:xlink="http://www.w3.org/1999/xlink">
<g id="graph0" class="graph" transform="scale(1 1) rotate(0) translate(4 312)">
<title>models_diagram</title>
<polygon fill="white" stroke="none" points="-4,4 -4,-312 555,-312 555,4 -4,4"/>
<!-- _diagram_info -->
<g id="node1" class="node"><title>_diagram_info</title>
<text text-anchor="start" x="7.31226" y="-293.1" font-family="Times,serif" font-size="13.00">Models diagram</text>
<text text-anchor="start" x="7.31226" y="-280.1" font-family="Times,serif" font-size="13.00">Date: Mar 02 2014 &#45; 01:04</text>
<text text-anchor="start" x="7.31226" y="-267.1" font-family="Times,serif" font-size="13.00">Migration version: 20140227182652</text>
<text text-anchor="start" x="7.31226" y="-254.1" font-family="Times,serif" font-size="13.00">Generated by RailRoady 1.1.1</text>
<text text-anchor="start" x="7.31226" y="-241.1" font-family="Times,serif" font-size="13.00">http://railroady.prestonlee.com</text>
</g>
<!-- Cart -->
<g id="node2" class="node"><title>Cart</title>
<ellipse fill="none" stroke="black" cx="201" cy="-104" rx="27" ry="18"/>
<text text-anchor="middle" x="201" y="-99.8" font-family="Times,serif" font-size="14.00">Cart</text>
</g>
<!-- LineItem -->
<g id="node4" class="node"><title>LineItem</title>
<ellipse fill="none" stroke="black" cx="97" cy="-18" rx="42.2776" ry="18"/>
<text text-anchor="middle" x="97" y="-13.8" font-family="Times,serif" font-size="14.00">LineItem</text>
</g>
<!-- Cart&#45;&gt;LineItem -->
<g id="edge1" class="edge"><title>Cart&#45;&gt;LineItem</title>
<path fill="none" stroke="#09ba3b" d="M177.763,-84.2318C161.707,-71.263 140.312,-53.9824 123.576,-40.4655"/>
<ellipse fill="none" stroke="#09ba3b" cx="181.179" cy="-86.9906" rx="4.00002" ry="4.00002"/>
<polygon fill="#09ba3b" stroke="#09ba3b" points="123.558,-40.4511 118.607,-30.6669 119.669,-37.3094 115.779,-34.1677 115.779,-34.1677 115.779,-34.1677 119.669,-37.3094 112.951,-37.6684 123.558,-40.4511 123.558,-40.4511"/>
<text text-anchor="middle" x="213.324" y="-56.8" font-family="Times,serif" font-size="14.00">shopping_cart_items</text>
</g>
<!-- Coupon -->
<g id="node3" class="node"><title>Coupon</title>
<ellipse fill="none" stroke="black" cx="118" cy="-178" rx="38.1712" ry="18"/>
<text text-anchor="middle" x="118" y="-173.8" font-family="Times,serif" font-size="14.00">Coupon</text>
</g>
<!-- Product -->
<g id="node5" class="node"><title>Product</title>
<ellipse fill="none" stroke="black" cx="514" cy="-178" rx="37.4255" ry="18"/>
<text text-anchor="middle" x="514" y="-173.8" font-family="Times,serif" font-size="14.00">Product</text>
</g>
<!-- ProductItem -->
<g id="node6" class="node"><title>ProductItem</title>
<ellipse fill="none" stroke="black" cx="470" cy="-104" rx="53.2368" ry="18"/>
<text text-anchor="middle" x="470" y="-99.8" font-family="Times,serif" font-size="14.00">ProductItem</text>
</g>
<!-- Product&#45;&gt;ProductItem -->
<g id="edge5" class="edge"><title>Product&#45;&gt;ProductItem</title>
<path fill="none" stroke="#7096ca" d="M499.463,-153.213C495.095,-146.064 490.281,-138.187 485.833,-130.908"/>
<ellipse fill="none" stroke="#7096ca" cx="501.709" cy="-156.888" rx="4.00002" ry="4.00002"/>
<polygon fill="#7096ca" stroke="#7096ca" points="485.67,-130.641 484.295,-119.762 483.063,-126.375 480.455,-122.109 480.455,-122.109 480.455,-122.109 483.063,-126.375 476.616,-124.455 485.67,-130.641 485.67,-130.641"/>
</g>
<!-- User -->
<g id="node7" class="node"><title>User</title>
<ellipse fill="none" stroke="black" cx="201" cy="-178" rx="27" ry="18"/>
<text text-anchor="middle" x="201" y="-173.8" font-family="Times,serif" font-size="14.00">User</text>
</g>
<!-- User&#45;&gt;Cart -->
<g id="edge8" class="edge"><title>User&#45;&gt;Cart</title>
<path fill="none" stroke="#5cbfe7" d="M201,-151.792C201,-145.58 201,-138.896 201,-132.579"/>
<ellipse fill="none" stroke="#5cbfe7" cx="201" cy="-155.937" rx="4" ry="4"/>
<polygon fill="#5cbfe7" stroke="#5cbfe7" points="201,-132.441 205.5,-122.441 201,-127.441 201,-122.441 201,-122.441 201,-122.441 201,-127.441 196.5,-122.441 201,-132.441 201,-132.441"/>
</g>
<!-- User&#45;&gt;User -->
<g id="edge9" class="edge"><title>User&#45;&gt;User</title>
<path fill="none" stroke="#1b6b4b" d="M236.052,-181.14C241.936,-180.703 246,-179.656 246,-178 246,-176.528 242.789,-175.537 237.943,-175.028"/>
<ellipse fill="none" stroke="#1b6b4b" cx="231.793" cy="-181.257" rx="4" ry="4"/>
<polygon fill="#1b6b4b" stroke="#1b6b4b" points="237.787,-175.022 227.97,-170.136 232.791,-174.827 227.795,-174.632 227.795,-174.632 227.795,-174.632 232.791,-174.827 227.619,-179.129 237.787,-175.022 237.787,-175.022"/>
<text text-anchor="middle" x="275.555" y="-173.8" font-family="Times,serif" font-size="14.00">invitations</text>
</g>
<!-- User&#45;&gt;User -->
<g id="edge10" class="edge"><title>User&#45;&gt;User</title>
<path fill="none" stroke="#39168f" d="M235.056,-183.845C266.329,-186.096 305.11,-184.148 305.11,-178 305.11,-171.852 266.329,-169.904 235.056,-172.155"/>
<ellipse fill="none" stroke="#39168f" cx="230.87" cy="-183.484" rx="4" ry="4"/>
<ellipse fill="#39168f" stroke="#39168f" cx="230.87" cy="-172.516" rx="4" ry="4"/>
<text text-anchor="middle" x="335.052" y="-173.8" font-family="Times,serif" font-size="14.00">invited_by</text>
</g>
<!-- ActiveRecord::Base -->
<g id="node8" class="node"><title>ActiveRecord::Base</title>
<ellipse fill="none" stroke="black" cx="306" cy="-271" rx="80.9821" ry="18"/>
<text text-anchor="middle" x="306" y="-266.8" font-family="Times,serif" font-size="14.00">ActiveRecord::Base</text>
</g>
<!-- ActiveRecord::Base&#45;&gt;Cart -->
<g id="edge2" class="edge"><title>ActiveRecord::Base&#45;&gt;Cart</title>
<path fill="none" stroke="black" d="M333.765,-254.072C367.337,-232.768 416.375,-193.763 391,-160 371.245,-133.715 274.726,-115.978 227.344,-108.709"/>
</g>
<!-- ActiveRecord::Base&#45;&gt;Coupon -->
<g id="edge3" class="edge"><title>ActiveRecord::Base&#45;&gt;Coupon</title>
<path fill="none" stroke="black" d="M273.682,-254.357C236.832,-236.52 177.34,-207.723 143.569,-191.377"/>
</g>
<!-- ActiveRecord::Base&#45;&gt;LineItem -->
<g id="edge4" class="edge"><title>ActiveRecord::Base&#45;&gt;LineItem</title>
<path fill="none" stroke="black" d="M270.05,-254.638C253.46,-247.844 233.401,-240.044 215,-234 152.114,-213.345 111.394,-248.436 71,-196 33.8498,-147.775 68.8266,-69.6402 87.2627,-35.6638"/>
</g>
<!-- ActiveRecord::Base&#45;&gt;Product -->
<g id="edge6" class="edge"><title>ActiveRecord::Base&#45;&gt;Product</title>
<path fill="none" stroke="black" d="M355.966,-256.674C387.334,-247.354 428.117,-233.461 462,-216 473.819,-209.909 485.983,-201.399 495.572,-194.075"/>
</g>
<!-- ActiveRecord::Base&#45;&gt;ProductItem -->
<g id="edge7" class="edge"><title>ActiveRecord::Base&#45;&gt;ProductItem</title>
<path fill="none" stroke="black" d="M338.785,-254.516C356.691,-245.031 378.509,-231.704 395,-216 424.811,-187.611 449.252,-145.416 461.498,-122.077"/>
</g>
<!-- ActiveRecord::Base&#45;&gt;User -->
<g id="edge11" class="edge"><title>ActiveRecord::Base&#45;&gt;User</title>
<path fill="none" stroke="black" d="M286.741,-253.309C266.73,-235.966 235.773,-209.137 217.044,-192.905"/>
</g>
</g>
</svg>
