<?xml version="1.0" encoding="UTF-8" standalone="no"?>
<!DOCTYPE svg PUBLIC "-//W3C//DTD SVG 1.1//EN"
 "http://www.w3.org/Graphics/SVG/1.1/DTD/svg11.dtd">
<!-- Generated by graphviz version 2.36.0 (20140111.2315)
 -->
<!-- Title: models_diagram Pages: 1 -->
<svg width="828pt" height="836pt"
 viewBox="0.00 0.00 827.72 836.00" xmlns="http://www.w3.org/2000/svg" xmlns:xlink="http://www.w3.org/1999/xlink">
<g id="graph0" class="graph" transform="scale(1 1) rotate(0) translate(4 832)">
<title>models_diagram</title>
<polygon fill="white" stroke="none" points="-4,4 -4,-832 823.719,-832 823.719,4 -4,4"/>
<!-- _diagram_info -->
<g id="node1" class="node"><title>_diagram_info</title>
<text text-anchor="start" x="177.032" y="-813.1" font-family="Times,serif" font-size="13.00">Models diagram</text>
<text text-anchor="start" x="177.032" y="-800.1" font-family="Times,serif" font-size="13.00">Date: Mar 02 2014 &#45; 01:04</text>
<text text-anchor="start" x="177.032" y="-787.1" font-family="Times,serif" font-size="13.00">Migration version: 20140227182652</text>
<text text-anchor="start" x="177.032" y="-774.1" font-family="Times,serif" font-size="13.00">Generated by RailRoady 1.1.1</text>
<text text-anchor="start" x="177.032" y="-761.1" font-family="Times,serif" font-size="13.00">http://railroady.prestonlee.com</text>
</g>
<!-- Cart -->
<g id="node2" class="node"><title>Cart</title>
<path fill="none" stroke="black" d="M293.983,-237C293.983,-237 373.456,-237 373.456,-237 379.456,-237 385.456,-243 385.456,-249 385.456,-249 385.456,-297 385.456,-297 385.456,-303 379.456,-309 373.456,-309 373.456,-309 293.983,-309 293.983,-309 287.983,-309 281.983,-303 281.983,-297 281.983,-297 281.983,-249 281.983,-249 281.983,-243 287.983,-237 293.983,-237"/>
<text text-anchor="middle" x="333.719" y="-293.8" font-family="Times,serif" font-size="14.00">Cart</text>
<polyline fill="none" stroke="black" points="281.983,-287 385.456,-287 "/>
<text text-anchor="start" x="289.983" y="-271.8" font-family="Times,serif" font-size="14.00">id :integer</text>
<text text-anchor="start" x="289.983" y="-257.8" font-family="Times,serif" font-size="14.00">status :integer</text>
<text text-anchor="start" x="289.983" y="-243.8" font-family="Times,serif" font-size="14.00">user_id :integer</text>
</g>
<!-- LineItem -->
<g id="node4" class="node"><title>LineItem</title>
<path fill="none" stroke="black" d="M75.214,-1C75.214,-1 184.225,-1 184.225,-1 190.225,-1 196.225,-7 196.225,-13 196.225,-13 196.225,-145 196.225,-145 196.225,-151 190.225,-157 184.225,-157 184.225,-157 75.214,-157 75.214,-157 69.214,-157 63.214,-151 63.214,-145 63.214,-145 63.214,-13 63.214,-13 63.214,-7 69.214,-1 75.214,-1"/>
<text text-anchor="middle" x="129.719" y="-141.8" font-family="Times,serif" font-size="14.00">LineItem</text>
<polyline fill="none" stroke="black" points="63.214,-135 196.225,-135 "/>
<text text-anchor="start" x="71.214" y="-119.8" font-family="Times,serif" font-size="14.00">id :integer</text>
<text text-anchor="start" x="71.214" y="-105.8" font-family="Times,serif" font-size="14.00">owner_id :integer</text>
<text text-anchor="start" x="71.214" y="-91.8" font-family="Times,serif" font-size="14.00">owner_type :string</text>
<text text-anchor="start" x="71.214" y="-77.8" font-family="Times,serif" font-size="14.00">quantity :integer</text>
<text text-anchor="start" x="71.214" y="-63.8" font-family="Times,serif" font-size="14.00">item_id :integer</text>
<text text-anchor="start" x="71.214" y="-49.8" font-family="Times,serif" font-size="14.00">item_type :string</text>
<text text-anchor="start" x="71.214" y="-35.8" font-family="Times,serif" font-size="14.00">price :float</text>
<text text-anchor="start" x="71.214" y="-21.8" font-family="Times,serif" font-size="14.00">created_at :datetime</text>
<text text-anchor="start" x="71.214" y="-7.8" font-family="Times,serif" font-size="14.00">updated_at :datetime</text>
</g>
<!-- Cart&#45;&gt;LineItem -->
<g id="edge1" class="edge"><title>Cart&#45;&gt;LineItem</title>
<path fill="none" stroke="#ba7455" d="M290.275,-231.111C265.174,-207.487 232.919,-177.129 203.912,-149.828"/>
<ellipse fill="none" stroke="#ba7455" cx="293.39" cy="-234.043" rx="4.00002" ry="4.00002"/>
<polygon fill="#ba7455" stroke="#ba7455" points="203.896,-149.813 199.698,-139.682 200.255,-146.386 196.614,-142.959 196.614,-142.959 196.614,-142.959 200.255,-146.386 193.53,-146.236 203.896,-149.813 203.896,-149.813"/>
<text text-anchor="middle" x="302.044" y="-178.8" font-family="Times,serif" font-size="14.00">shopping_cart_items</text>
</g>
<!-- Coupon -->
<g id="node3" class="node"><title>Coupon</title>
<path fill="none" stroke="black" d="M92.214,-482C92.214,-482 201.225,-482 201.225,-482 207.225,-482 213.225,-488 213.225,-494 213.225,-494 213.225,-598 213.225,-598 213.225,-604 207.225,-610 201.225,-610 201.225,-610 92.214,-610 92.214,-610 86.214,-610 80.214,-604 80.214,-598 80.214,-598 80.214,-494 80.214,-494 80.214,-488 86.214,-482 92.214,-482"/>
<text text-anchor="middle" x="146.719" y="-594.8" font-family="Times,serif" font-size="14.00">Coupon</text>
<polyline fill="none" stroke="black" points="80.214,-588 213.225,-588 "/>
<text text-anchor="start" x="88.214" y="-572.8" font-family="Times,serif" font-size="14.00">id :integer</text>
<text text-anchor="start" x="88.214" y="-558.8" font-family="Times,serif" font-size="14.00">code :string</text>
<text text-anchor="start" x="88.214" y="-544.8" font-family="Times,serif" font-size="14.00">amount :string</text>
<text text-anchor="start" x="88.214" y="-530.8" font-family="Times,serif" font-size="14.00">percent :string</text>
<text text-anchor="start" x="88.214" y="-516.8" font-family="Times,serif" font-size="14.00">expires_at :datetime</text>
<text text-anchor="start" x="88.214" y="-502.8" font-family="Times,serif" font-size="14.00">created_at :datetime</text>
<text text-anchor="start" x="88.214" y="-488.8" font-family="Times,serif" font-size="14.00">updated_at :datetime</text>
</g>
<!-- Product -->
<g id="node5" class="node"><title>Product</title>
<path fill="none" stroke="black" d="M695.655,-503C695.655,-503 807.783,-503 807.783,-503 813.783,-503 819.783,-509 819.783,-515 819.783,-515 819.783,-577 819.783,-577 819.783,-583 813.783,-589 807.783,-589 807.783,-589 695.655,-589 695.655,-589 689.655,-589 683.655,-583 683.655,-577 683.655,-577 683.655,-515 683.655,-515 683.655,-509 689.655,-503 695.655,-503"/>
<text text-anchor="middle" x="751.719" y="-573.8" font-family="Times,serif" font-size="14.00">Product</text>
<polyline fill="none" stroke="black" points="683.655,-567 819.783,-567 "/>
<text text-anchor="start" x="691.655" y="-551.8" font-family="Times,serif" font-size="14.00">id :integer</text>
<text text-anchor="start" x="691.655" y="-537.8" font-family="Times,serif" font-size="14.00">product_type :integer</text>
<text text-anchor="start" x="691.655" y="-523.8" font-family="Times,serif" font-size="14.00">created_at :datetime</text>
<text text-anchor="start" x="691.655" y="-509.8" font-family="Times,serif" font-size="14.00">updated_at :datetime</text>
</g>
<!-- ProductItem -->
<g id="node6" class="node"><title>ProductItem</title>
<path fill="none" stroke="black" d="M589.207,-209C589.207,-209 782.232,-209 782.232,-209 788.232,-209 794.232,-215 794.232,-221 794.232,-221 794.232,-325 794.232,-325 794.232,-331 788.232,-337 782.232,-337 782.232,-337 589.207,-337 589.207,-337 583.207,-337 577.207,-331 577.207,-325 577.207,-325 577.207,-221 577.207,-221 577.207,-215 583.207,-209 589.207,-209"/>
<text text-anchor="middle" x="685.719" y="-321.8" font-family="Times,serif" font-size="14.00">ProductItem</text>
<polyline fill="none" stroke="black" points="577.207,-315 794.232,-315 "/>
<text text-anchor="start" x="585.207" y="-299.8" font-family="Times,serif" font-size="14.00">id :integer</text>
<text text-anchor="start" x="585.207" y="-285.8" font-family="Times,serif" font-size="14.00">product_id :integer</text>
<text text-anchor="start" x="585.207" y="-271.8" font-family="Times,serif" font-size="14.00">instagram_image_id :string</text>
<text text-anchor="start" x="585.207" y="-257.8" font-family="Times,serif" font-size="14.00">instagram_image_url :string</text>
<text text-anchor="start" x="585.207" y="-243.8" font-family="Times,serif" font-size="14.00">instagram_image_thumb_url :string</text>
<text text-anchor="start" x="585.207" y="-229.8" font-family="Times,serif" font-size="14.00">created_at :datetime</text>
<text text-anchor="start" x="585.207" y="-215.8" font-family="Times,serif" font-size="14.00">updated_at :datetime</text>
</g>
<!-- Product&#45;&gt;ProductItem -->
<g id="edge5" class="edge"><title>Product&#45;&gt;ProductItem</title>
<path fill="none" stroke="#7bbf24" d="M739.584,-495.17C729.463,-453.613 714.903,-393.828 703.472,-346.891"/>
<ellipse fill="none" stroke="#7bbf24" cx="740.533" cy="-499.067" rx="4.00001" ry="4.00001"/>
<polygon fill="#7bbf24" stroke="#7bbf24" points="703.449,-346.798 705.455,-336.017 702.266,-341.94 701.082,-337.082 701.082,-337.082 701.082,-337.082 702.266,-341.94 696.71,-338.147 703.449,-346.798 703.449,-346.798"/>
</g>
<!-- User -->
<g id="node7" class="node"><title>User</title>
<path fill="none" stroke="black" d="M243.442,-377C243.442,-377 423.997,-377 423.997,-377 429.997,-377 435.997,-383 435.997,-389 435.997,-389 435.997,-703 435.997,-703 435.997,-709 429.997,-715 423.997,-715 423.997,-715 243.442,-715 243.442,-715 237.442,-715 231.442,-709 231.442,-703 231.442,-703 231.442,-389 231.442,-389 231.442,-383 237.442,-377 243.442,-377"/>
<text text-anchor="middle" x="333.719" y="-699.8" font-family="Times,serif" font-size="14.00">User</text>
<polyline fill="none" stroke="black" points="231.442,-693 435.997,-693 "/>
<text text-anchor="start" x="239.442" y="-677.8" font-family="Times,serif" font-size="14.00">id :integer</text>
<text text-anchor="start" x="239.442" y="-663.8" font-family="Times,serif" font-size="14.00">email :string</text>
<text text-anchor="start" x="239.442" y="-649.8" font-family="Times,serif" font-size="14.00">encrypted_password :string</text>
<text text-anchor="start" x="239.442" y="-635.8" font-family="Times,serif" font-size="14.00">reset_password_token :string</text>
<text text-anchor="start" x="239.442" y="-621.8" font-family="Times,serif" font-size="14.00">reset_password_sent_at :datetime</text>
<text text-anchor="start" x="239.442" y="-607.8" font-family="Times,serif" font-size="14.00">remember_created_at :datetime</text>
<text text-anchor="start" x="239.442" y="-593.8" font-family="Times,serif" font-size="14.00">sign_in_count :integer</text>
<text text-anchor="start" x="239.442" y="-579.8" font-family="Times,serif" font-size="14.00">current_sign_in_at :datetime</text>
<text text-anchor="start" x="239.442" y="-565.8" font-family="Times,serif" font-size="14.00">last_sign_in_at :datetime</text>
<text text-anchor="start" x="239.442" y="-551.8" font-family="Times,serif" font-size="14.00">current_sign_in_ip :string</text>
<text text-anchor="start" x="239.442" y="-537.8" font-family="Times,serif" font-size="14.00">last_sign_in_ip :string</text>
<text text-anchor="start" x="239.442" y="-523.8" font-family="Times,serif" font-size="14.00">created_at :datetime</text>
<text text-anchor="start" x="239.442" y="-509.8" font-family="Times,serif" font-size="14.00">updated_at :datetime</text>
<text text-anchor="start" x="239.442" y="-495.8" font-family="Times,serif" font-size="14.00">uid :string</text>
<text text-anchor="start" x="239.442" y="-481.8" font-family="Times,serif" font-size="14.00">provider :string</text>
<text text-anchor="start" x="239.442" y="-467.8" font-family="Times,serif" font-size="14.00">username :string</text>
<text text-anchor="start" x="239.442" y="-453.8" font-family="Times,serif" font-size="14.00">name :string</text>
<text text-anchor="start" x="239.442" y="-439.8" font-family="Times,serif" font-size="14.00">image :string</text>
<text text-anchor="start" x="239.442" y="-425.8" font-family="Times,serif" font-size="14.00">token :string</text>
<text text-anchor="start" x="239.442" y="-411.8" font-family="Times,serif" font-size="14.00">invite_code :string</text>
<text text-anchor="start" x="239.442" y="-397.8" font-family="Times,serif" font-size="14.00">credit :float</text>
<text text-anchor="start" x="239.442" y="-383.8" font-family="Times,serif" font-size="14.00">invited_by_id :integer</text>
</g>
<!-- User&#45;&gt;Cart -->
<g id="edge8" class="edge"><title>User&#45;&gt;Cart</title>
<path fill="none" stroke="#b8d4bd" d="M333.719,-368.838C333.719,-350.778 333.719,-333.78 333.719,-319.3"/>
<ellipse fill="none" stroke="#b8d4bd" cx="333.719" cy="-372.84" rx="4" ry="4"/>
<polygon fill="#b8d4bd" stroke="#b8d4bd" points="333.719,-319.222 338.219,-309.222 333.719,-314.222 333.719,-309.222 333.719,-309.222 333.719,-309.222 333.719,-314.222 329.219,-309.222 333.719,-319.222 333.719,-319.222"/>
</g>
<!-- User&#45;&gt;User -->
<g id="edge9" class="edge"><title>User&#45;&gt;User</title>
<path fill="none" stroke="#83ef32" d="M443.805,-557.905C450.016,-555.024 453.719,-551.056 453.719,-546 453.719,-541.482 450.762,-537.832 445.701,-535.052"/>
<ellipse fill="none" stroke="#83ef32" cx="439.911" cy="-559.275" rx="4.00001" ry="4.00001"/>
<polygon fill="#83ef32" stroke="#83ef32" points="445.479,-534.967 437.744,-527.193 440.808,-533.182 436.138,-531.397 436.138,-531.397 436.138,-531.397 440.808,-533.182 434.531,-535.6 445.479,-534.967 445.479,-534.967"/>
<text text-anchor="middle" x="483.275" y="-541.8" font-family="Times,serif" font-size="14.00">invitations</text>
</g>
<!-- User&#45;&gt;User -->
<g id="edge10" class="edge"><title>User&#45;&gt;User</title>
<path fill="none" stroke="#43ebab" d="M444.436,-581.21C481.75,-580.448 512.83,-568.711 512.83,-546 512.83,-523.289 481.75,-511.552 444.436,-510.79"/>
<ellipse fill="none" stroke="#43ebab" cx="440.388" cy="-581.208" rx="4" ry="4"/>
<ellipse fill="#43ebab" stroke="#43ebab" cx="440.388" cy="-510.792" rx="4" ry="4"/>
<text text-anchor="middle" x="542.771" y="-541.8" font-family="Times,serif" font-size="14.00">invited_by</text>
</g>
<!-- ActiveRecord::Base -->
<g id="node8" class="node"><title>ActiveRecord::Base</title>
<ellipse fill="none" stroke="black" cx="475.719" cy="-791" rx="80.9821" ry="18"/>
<text text-anchor="middle" x="475.719" y="-786.8" font-family="Times,serif" font-size="14.00">ActiveRecord::Base</text>
</g>
<!-- ActiveRecord::Base&#45;&gt;Cart -->
<g id="edge2" class="edge"><title>ActiveRecord::Base&#45;&gt;Cart</title>
<path fill="none" stroke="black" d="M520.465,-775.912C548.367,-764.544 582.038,-745.503 598.719,-716 635.906,-650.229 641.486,-438.287 598.719,-376 550.864,-306.303 448.197,-284.212 385.634,-277.222"/>
</g>
<!-- ActiveRecord::Base&#45;&gt;Coupon -->
<g id="edge3" class="edge"><title>ActiveRecord::Base&#45;&gt;Coupon</title>
<path fill="none" stroke="black" d="M440.28,-774.582C423.622,-767.698 403.365,-759.84 384.719,-754 314.146,-731.894 279.789,-763.034 222.719,-716 190.446,-689.402 171.352,-646.237 160.374,-610.189"/>
</g>
<!-- ActiveRecord::Base&#45;&gt;LineItem -->
<g id="edge4" class="edge"><title>ActiveRecord::Base&#45;&gt;LineItem</title>
<path fill="none" stroke="black" d="M442.265,-774.378C425.357,-767.103 404.316,-758.974 384.719,-754 316.593,-736.708 117.339,-768.601 70.7194,-716 -67.7397,-559.774 29.3372,-289.398 90.4172,-157.231"/>
</g>
<!-- ActiveRecord::Base&#45;&gt;Product -->
<g id="edge6" class="edge"><title>ActiveRecord::Base&#45;&gt;Product</title>
<path fill="none" stroke="black" d="M551.664,-784.365C590.864,-777.919 637.158,-764.355 669.719,-736 713.417,-697.947 734.647,-632.37 744.346,-589.342"/>
</g>
<!-- ActiveRecord::Base&#45;&gt;ProductItem -->
<g id="edge7" class="edge"><title>ActiveRecord::Base&#45;&gt;ProductItem</title>
<path fill="none" stroke="black" d="M533.167,-778.232C567.126,-767.977 607.357,-749.304 627.719,-716 637.484,-700.029 665.624,-455.677 678.782,-337.316"/>
</g>
<!-- ActiveRecord::Base&#45;&gt;User -->
<g id="edge11" class="edge"><title>ActiveRecord::Base&#45;&gt;User</title>
<path fill="none" stroke="black" d="M465.734,-772.913C457.748,-759.247 445.65,-738.543 431.959,-715.114"/>
</g>
</g>
</svg>
