<?xml version="1.0" encoding="UTF-8" standalone="no"?>
<!DOCTYPE svg PUBLIC "-//W3C//DTD SVG 1.1//EN"
 "http://www.w3.org/Graphics/SVG/1.1/DTD/svg11.dtd">
<!-- Generated by graphviz version 2.36.0 (20140111.2315)
 -->
<!-- Title: models_diagram Pages: 1 -->
<svg width="730pt" height="978pt"
 viewBox="0.00 0.00 729.92 978.00" xmlns="http://www.w3.org/2000/svg" xmlns:xlink="http://www.w3.org/1999/xlink">
<g id="graph0" class="graph" transform="scale(1 1) rotate(0) translate(4 974)">
<title>models_diagram</title>
<polygon fill="white" stroke="none" points="-4,4 -4,-974 725.916,-974 725.916,4 -4,4"/>
<!-- _diagram_info -->
<g id="node1" class="node"><title>_diagram_info</title>
<text text-anchor="start" x="7.31226" y="-955.1" font-family="Times,serif" font-size="13.00">Models diagram</text>
<text text-anchor="start" x="7.31226" y="-942.1" font-family="Times,serif" font-size="13.00">Date: Mar 02 2014 &#45; 15:35</text>
<text text-anchor="start" x="7.31226" y="-929.1" font-family="Times,serif" font-size="13.00">Migration version: 20140302044938</text>
<text text-anchor="start" x="7.31226" y="-916.1" font-family="Times,serif" font-size="13.00">Generated by RailRoady 1.1.1</text>
<text text-anchor="start" x="7.31226" y="-903.1" font-family="Times,serif" font-size="13.00">http://railroady.prestonlee.com</text>
</g>
<!-- Coupon -->
<g id="node2" class="node"><title>Coupon</title>
<path fill="none" stroke="black" d="M79.4946,-624C79.4946,-624 188.505,-624 188.505,-624 194.505,-624 200.505,-630 200.505,-636 200.505,-636 200.505,-740 200.505,-740 200.505,-746 194.505,-752 188.505,-752 188.505,-752 79.4946,-752 79.4946,-752 73.4946,-752 67.4946,-746 67.4946,-740 67.4946,-740 67.4946,-636 67.4946,-636 67.4946,-630 73.4946,-624 79.4946,-624"/>
<text text-anchor="middle" x="134" y="-736.8" font-family="Times,serif" font-size="14.00">Coupon</text>
<polyline fill="none" stroke="black" points="67.4946,-730 200.505,-730 "/>
<text text-anchor="start" x="75.4946" y="-714.8" font-family="Times,serif" font-size="14.00">id :integer</text>
<text text-anchor="start" x="75.4946" y="-700.8" font-family="Times,serif" font-size="14.00">code :string</text>
<text text-anchor="start" x="75.4946" y="-686.8" font-family="Times,serif" font-size="14.00">amount :string</text>
<text text-anchor="start" x="75.4946" y="-672.8" font-family="Times,serif" font-size="14.00">percent :string</text>
<text text-anchor="start" x="75.4946" y="-658.8" font-family="Times,serif" font-size="14.00">expires_at :datetime</text>
<text text-anchor="start" x="75.4946" y="-644.8" font-family="Times,serif" font-size="14.00">created_at :datetime</text>
<text text-anchor="start" x="75.4946" y="-630.8" font-family="Times,serif" font-size="14.00">updated_at :datetime</text>
</g>
<!-- Order -->
<g id="node3" class="node"><title>Order</title>
<path fill="none" stroke="black" d="M288.495,-323C288.495,-323 397.505,-323 397.505,-323 403.505,-323 409.505,-329 409.505,-335 409.505,-335 409.505,-467 409.505,-467 409.505,-473 403.505,-479 397.505,-479 397.505,-479 288.495,-479 288.495,-479 282.495,-479 276.495,-473 276.495,-467 276.495,-467 276.495,-335 276.495,-335 276.495,-329 282.495,-323 288.495,-323"/>
<text text-anchor="middle" x="343" y="-463.8" font-family="Times,serif" font-size="14.00">Order</text>
<polyline fill="none" stroke="black" points="276.495,-457 409.505,-457 "/>
<text text-anchor="start" x="284.495" y="-441.8" font-family="Times,serif" font-size="14.00">id :integer</text>
<text text-anchor="start" x="284.495" y="-427.8" font-family="Times,serif" font-size="14.00">user_id :integer</text>
<text text-anchor="start" x="284.495" y="-413.8" font-family="Times,serif" font-size="14.00">qty :integer</text>
<text text-anchor="start" x="284.495" y="-399.8" font-family="Times,serif" font-size="14.00">total_price :integer</text>
<text text-anchor="start" x="284.495" y="-385.8" font-family="Times,serif" font-size="14.00">status :string</text>
<text text-anchor="start" x="284.495" y="-371.8" font-family="Times,serif" font-size="14.00">remark :string</text>
<text text-anchor="start" x="284.495" y="-357.8" font-family="Times,serif" font-size="14.00">paid :boolean</text>
<text text-anchor="start" x="284.495" y="-343.8" font-family="Times,serif" font-size="14.00">created_at :datetime</text>
<text text-anchor="start" x="284.495" y="-329.8" font-family="Times,serif" font-size="14.00">updated_at :datetime</text>
</g>
<!-- OrderedPack -->
<g id="node4" class="node"><title>OrderedPack</title>
<path fill="none" stroke="black" d="M288.495,-15C288.495,-15 397.505,-15 397.505,-15 403.505,-15 409.505,-21 409.505,-27 409.505,-27 409.505,-103 409.505,-103 409.505,-109 403.505,-115 397.505,-115 397.505,-115 288.495,-115 288.495,-115 282.495,-115 276.495,-109 276.495,-103 276.495,-103 276.495,-27 276.495,-27 276.495,-21 282.495,-15 288.495,-15"/>
<text text-anchor="middle" x="343" y="-99.8" font-family="Times,serif" font-size="14.00">OrderedPack</text>
<polyline fill="none" stroke="black" points="276.495,-93 409.505,-93 "/>
<text text-anchor="start" x="284.495" y="-77.8" font-family="Times,serif" font-size="14.00">id :integer</text>
<text text-anchor="start" x="284.495" y="-63.8" font-family="Times,serif" font-size="14.00">order_id :integer</text>
<text text-anchor="start" x="284.495" y="-49.8" font-family="Times,serif" font-size="14.00">pack_id :integer</text>
<text text-anchor="start" x="284.495" y="-35.8" font-family="Times,serif" font-size="14.00">created_at :datetime</text>
<text text-anchor="start" x="284.495" y="-21.8" font-family="Times,serif" font-size="14.00">updated_at :datetime</text>
</g>
<!-- Order&#45;&gt;OrderedPack -->
<g id="edge2" class="edge"><title>Order&#45;&gt;OrderedPack</title>
<path fill="none" stroke="#124876" d="M343,-314.575C343,-255.352 343,-177.985 343,-125.403"/>
<ellipse fill="none" stroke="#124876" cx="343" cy="-318.954" rx="4" ry="4"/>
<polygon fill="#124876" stroke="#124876" points="343,-125.23 347.5,-115.23 343,-120.23 343,-115.23 343,-115.23 343,-115.23 343,-120.23 338.5,-115.23 343,-125.23 343,-125.23"/>
</g>
<!-- Pack -->
<g id="node5" class="node"><title>Pack</title>
<path fill="none" stroke="black" d="M383.495,-169C383.495,-169 492.505,-169 492.505,-169 498.505,-169 504.505,-175 504.505,-181 504.505,-181 504.505,-271 504.505,-271 504.505,-277 498.505,-283 492.505,-283 492.505,-283 383.495,-283 383.495,-283 377.495,-283 371.495,-277 371.495,-271 371.495,-271 371.495,-181 371.495,-181 371.495,-175 377.495,-169 383.495,-169"/>
<text text-anchor="middle" x="438" y="-267.8" font-family="Times,serif" font-size="14.00">Pack</text>
<polyline fill="none" stroke="black" points="371.495,-261 504.505,-261 "/>
<text text-anchor="start" x="379.495" y="-245.8" font-family="Times,serif" font-size="14.00">id :integer</text>
<text text-anchor="start" x="379.495" y="-231.8" font-family="Times,serif" font-size="14.00">user_id :integer</text>
<text text-anchor="start" x="379.495" y="-217.8" font-family="Times,serif" font-size="14.00">name :string</text>
<text text-anchor="start" x="379.495" y="-203.8" font-family="Times,serif" font-size="14.00">price :integer</text>
<text text-anchor="start" x="379.495" y="-189.8" font-family="Times,serif" font-size="14.00">created_at :datetime</text>
<text text-anchor="start" x="379.495" y="-175.8" font-family="Times,serif" font-size="14.00">updated_at :datetime</text>
</g>
<!-- Order&#45;&gt;Pack -->
<g id="edge3" class="edge"><title>Order&#45;&gt;Pack</title>
<path fill="none" stroke="#5bae1e" d="M383.432,-314.079C387.472,-306.715 391.581,-299.346 395.64,-292.185"/>
<polygon fill="#5bae1e" stroke="#5bae1e" points="383.432,-314.08 374.694,-320.706 381.038,-318.47 378.645,-322.86 378.645,-322.86 378.645,-322.86 381.038,-318.47 382.596,-325.014 383.432,-314.08 383.432,-314.08"/>
<polygon fill="#5bae1e" stroke="#5bae1e" points="395.789,-291.925 404.655,-285.472 398.268,-287.583 400.748,-283.241 400.748,-283.241 400.748,-283.241 398.268,-287.583 396.84,-281.01 395.789,-291.925 395.789,-291.925"/>
</g>
<!-- Pack&#45;&gt;Order -->
<g id="edge8" class="edge"><title>Pack&#45;&gt;Order</title>
<path fill="none" stroke="#31d321" d="M409.591,-290.637C405.27,-298.789 400.704,-307.233 396.068,-315.65"/>
<ellipse fill="none" stroke="#31d321" cx="411.621" cy="-286.78" rx="4.00002" ry="4.00002"/>
<ellipse fill="#31d321" stroke="#31d321" cx="394.013" cy="-319.361" rx="4.00002" ry="4.00002"/>
</g>
<!-- Pack&#45;&gt;OrderedPack -->
<g id="edge7" class="edge"><title>Pack&#45;&gt;OrderedPack</title>
<path fill="none" stroke="#07d15e" d="M400.287,-161.881C392.462,-148.784 384.267,-135.067 376.601,-122.237"/>
<ellipse fill="none" stroke="#07d15e" cx="402.455" cy="-165.509" rx="4.00002" ry="4.00002"/>
<ellipse fill="#07d15e" stroke="#07d15e" cx="374.454" cy="-118.643" rx="4.00002" ry="4.00002"/>
</g>
<!-- PackItem -->
<g id="node6" class="node"><title>PackItem</title>
<path fill="none" stroke="black" d="M551.495,-1C551.495,-1 660.505,-1 660.505,-1 666.505,-1 672.505,-7 672.505,-13 672.505,-13 672.505,-117 672.505,-117 672.505,-123 666.505,-129 660.505,-129 660.505,-129 551.495,-129 551.495,-129 545.495,-129 539.495,-123 539.495,-117 539.495,-117 539.495,-13 539.495,-13 539.495,-7 545.495,-1 551.495,-1"/>
<text text-anchor="middle" x="606" y="-113.8" font-family="Times,serif" font-size="14.00">PackItem</text>
<polyline fill="none" stroke="black" points="539.495,-107 672.505,-107 "/>
<text text-anchor="start" x="547.495" y="-91.8" font-family="Times,serif" font-size="14.00">id :integer</text>
<text text-anchor="start" x="547.495" y="-77.8" font-family="Times,serif" font-size="14.00">image :string</text>
<text text-anchor="start" x="547.495" y="-63.8" font-family="Times,serif" font-size="14.00">thumb :string</text>
<text text-anchor="start" x="547.495" y="-49.8" font-family="Times,serif" font-size="14.00">uid :string</text>
<text text-anchor="start" x="547.495" y="-35.8" font-family="Times,serif" font-size="14.00">pack_id :integer</text>
<text text-anchor="start" x="547.495" y="-21.8" font-family="Times,serif" font-size="14.00">created_at :datetime</text>
<text text-anchor="start" x="547.495" y="-7.8" font-family="Times,serif" font-size="14.00">updated_at :datetime</text>
</g>
<!-- Pack&#45;&gt;PackItem -->
<g id="edge6" class="edge"><title>Pack&#45;&gt;PackItem</title>
<path fill="none" stroke="#576a3a" d="M503.346,-163.155C512.653,-154.347 522.281,-145.234 531.743,-136.279"/>
<ellipse fill="none" stroke="#576a3a" cx="500.136" cy="-166.193" rx="4.00002" ry="4.00002"/>
<polygon fill="#576a3a" stroke="#576a3a" points="532.022,-136.015 542.378,-132.409 535.654,-132.578 539.285,-129.141 539.285,-129.141 539.285,-129.141 535.654,-132.578 536.192,-125.872 532.022,-136.015 532.022,-136.015"/>
</g>
<!-- User -->
<g id="node7" class="node"><title>User</title>
<path fill="none" stroke="black" d="M306.722,-519C306.722,-519 487.278,-519 487.278,-519 493.278,-519 499.278,-525 499.278,-531 499.278,-531 499.278,-845 499.278,-845 499.278,-851 493.278,-857 487.278,-857 487.278,-857 306.722,-857 306.722,-857 300.722,-857 294.722,-851 294.722,-845 294.722,-845 294.722,-531 294.722,-531 294.722,-525 300.722,-519 306.722,-519"/>
<text text-anchor="middle" x="397" y="-841.8" font-family="Times,serif" font-size="14.00">User</text>
<polyline fill="none" stroke="black" points="294.722,-835 499.278,-835 "/>
<text text-anchor="start" x="302.722" y="-819.8" font-family="Times,serif" font-size="14.00">id :integer</text>
<text text-anchor="start" x="302.722" y="-805.8" font-family="Times,serif" font-size="14.00">email :string</text>
<text text-anchor="start" x="302.722" y="-791.8" font-family="Times,serif" font-size="14.00">encrypted_password :string</text>
<text text-anchor="start" x="302.722" y="-777.8" font-family="Times,serif" font-size="14.00">reset_password_token :string</text>
<text text-anchor="start" x="302.722" y="-763.8" font-family="Times,serif" font-size="14.00">reset_password_sent_at :datetime</text>
<text text-anchor="start" x="302.722" y="-749.8" font-family="Times,serif" font-size="14.00">remember_created_at :datetime</text>
<text text-anchor="start" x="302.722" y="-735.8" font-family="Times,serif" font-size="14.00">sign_in_count :integer</text>
<text text-anchor="start" x="302.722" y="-721.8" font-family="Times,serif" font-size="14.00">current_sign_in_at :datetime</text>
<text text-anchor="start" x="302.722" y="-707.8" font-family="Times,serif" font-size="14.00">last_sign_in_at :datetime</text>
<text text-anchor="start" x="302.722" y="-693.8" font-family="Times,serif" font-size="14.00">current_sign_in_ip :string</text>
<text text-anchor="start" x="302.722" y="-679.8" font-family="Times,serif" font-size="14.00">last_sign_in_ip :string</text>
<text text-anchor="start" x="302.722" y="-665.8" font-family="Times,serif" font-size="14.00">created_at :datetime</text>
<text text-anchor="start" x="302.722" y="-651.8" font-family="Times,serif" font-size="14.00">updated_at :datetime</text>
<text text-anchor="start" x="302.722" y="-637.8" font-family="Times,serif" font-size="14.00">uid :string</text>
<text text-anchor="start" x="302.722" y="-623.8" font-family="Times,serif" font-size="14.00">provider :string</text>
<text text-anchor="start" x="302.722" y="-609.8" font-family="Times,serif" font-size="14.00">username :string</text>
<text text-anchor="start" x="302.722" y="-595.8" font-family="Times,serif" font-size="14.00">name :string</text>
<text text-anchor="start" x="302.722" y="-581.8" font-family="Times,serif" font-size="14.00">image :string</text>
<text text-anchor="start" x="302.722" y="-567.8" font-family="Times,serif" font-size="14.00">token :string</text>
<text text-anchor="start" x="302.722" y="-553.8" font-family="Times,serif" font-size="14.00">invite_code :string</text>
<text text-anchor="start" x="302.722" y="-539.8" font-family="Times,serif" font-size="14.00">credit :float</text>
<text text-anchor="start" x="302.722" y="-525.8" font-family="Times,serif" font-size="14.00">invited_by_id :integer</text>
</g>
<!-- User&#45;&gt;Order -->
<g id="edge14" class="edge"><title>User&#45;&gt;Order</title>
<path fill="none" stroke="#46fa76" d="M363.602,-510.734C362.21,-503.387 360.842,-496.167 359.514,-489.159"/>
<ellipse fill="none" stroke="#46fa76" cx="364.375" cy="-514.813" rx="4.00001" ry="4.00001"/>
<polygon fill="#46fa76" stroke="#46fa76" points="359.461,-488.877 362.021,-478.214 358.53,-483.964 357.599,-479.052 357.599,-479.052 357.599,-479.052 358.53,-483.964 353.178,-479.89 359.461,-488.877 359.461,-488.877"/>
</g>
<!-- User&#45;&gt;Pack -->
<g id="edge13" class="edge"><title>User&#45;&gt;Pack</title>
<path fill="none" stroke="#8011c4" d="M415.129,-510.958C416.123,-500.486 417.088,-490.106 418,-480 423.705,-416.777 429.323,-344.583 433.145,-293.541"/>
<ellipse fill="none" stroke="#8011c4" cx="414.743" cy="-515" rx="4" ry="4"/>
<polygon fill="#8011c4" stroke="#8011c4" points="433.165,-293.275 438.397,-283.637 433.537,-288.288 433.909,-283.302 433.909,-283.302 433.909,-283.302 433.537,-288.288 429.422,-282.967 433.165,-293.275 433.165,-293.275"/>
</g>
<!-- User&#45;&gt;User -->
<g id="edge11" class="edge"><title>User&#45;&gt;User</title>
<path fill="none" stroke="#95db5f" d="M507.086,-699.905C513.297,-697.024 517,-693.056 517,-688 517,-683.482 514.043,-679.832 508.981,-677.052"/>
<ellipse fill="none" stroke="#95db5f" cx="503.191" cy="-701.275" rx="4.00001" ry="4.00001"/>
<polygon fill="#95db5f" stroke="#95db5f" points="508.759,-676.967 501.025,-669.193 504.089,-675.182 499.418,-673.397 499.418,-673.397 499.418,-673.397 504.089,-675.182 497.812,-677.6 508.759,-676.967 508.759,-676.967"/>
<text text-anchor="middle" x="546.555" y="-683.8" font-family="Times,serif" font-size="14.00">invitations</text>
</g>
<!-- User&#45;&gt;User -->
<g id="edge12" class="edge"><title>User&#45;&gt;User</title>
<path fill="none" stroke="#639dc5" d="M507.717,-723.21C545.03,-722.448 576.11,-710.711 576.11,-688 576.11,-665.289 545.03,-653.552 507.717,-652.79"/>
<ellipse fill="none" stroke="#639dc5" cx="503.669" cy="-723.208" rx="4" ry="4"/>
<ellipse fill="#639dc5" stroke="#639dc5" cx="503.669" cy="-652.792" rx="4" ry="4"/>
<text text-anchor="middle" x="606.052" y="-683.8" font-family="Times,serif" font-size="14.00">invited_by</text>
</g>
<!-- ActiveRecord::Base -->
<g id="node8" class="node"><title>ActiveRecord::Base</title>
<ellipse fill="none" stroke="black" cx="306" cy="-933" rx="80.9821" ry="18"/>
<text text-anchor="middle" x="306" y="-928.8" font-family="Times,serif" font-size="14.00">ActiveRecord::Base</text>
</g>
<!-- ActiveRecord::Base&#45;&gt;Coupon -->
<g id="edge1" class="edge"><title>ActiveRecord::Base&#45;&gt;Coupon</title>
<path fill="none" stroke="black" d="M269,-916.729C250.79,-907.688 229.658,-894.711 215,-878 183.455,-842.038 162.741,-791.94 150.162,-752.358"/>
</g>
<!-- ActiveRecord::Base&#45;&gt;Order -->
<g id="edge4" class="edge"><title>ActiveRecord::Base&#45;&gt;Order</title>
<path fill="none" stroke="black" d="M300.001,-914.919C295.128,-900.087 288.645,-877.921 286,-858 266.114,-708.203 251.791,-665.188 286,-518 289.022,-504.995 293.719,-491.77 299.148,-479.128"/>
</g>
<!-- ActiveRecord::Base&#45;&gt;OrderedPack -->
<g id="edge5" class="edge"><title>ActiveRecord::Base&#45;&gt;OrderedPack</title>
<path fill="none" stroke="black" d="M293.198,-914.985C282.96,-900.551 269.034,-878.914 261,-858 233.588,-786.638 229,-765.446 229,-689 229,-689 229,-689 229,-225 229,-182.712 255.963,-143.95 283.663,-115.286"/>
</g>
<!-- ActiveRecord::Base&#45;&gt;Pack -->
<g id="edge9" class="edge"><title>ActiveRecord::Base&#45;&gt;Pack</title>
<path fill="none" stroke="black" d="M382.726,-927.099C476.642,-919.316 627.491,-900.42 662,-858 709.68,-799.389 686.341,-589.527 662,-518 630.112,-424.298 554.519,-337.223 499.958,-283.199"/>
</g>
<!-- ActiveRecord::Base&#45;&gt;PackItem -->
<g id="edge10" class="edge"><title>ActiveRecord::Base&#45;&gt;PackItem</title>
<path fill="none" stroke="black" d="M385.321,-928.829C486.791,-922.838 653.687,-905.796 689,-858 734.331,-796.644 719,-765.285 719,-689 719,-689 719,-689 719,-225 719,-186.902 697.178,-151.582 672.713,-123.957"/>
</g>
<!-- ActiveRecord::Base&#45;&gt;User -->
<g id="edge15" class="edge"><title>ActiveRecord::Base&#45;&gt;User</title>
<path fill="none" stroke="black" d="M312.399,-914.913C317.517,-901.247 325.27,-880.543 334.044,-857.114"/>
</g>
</g>
</svg>
