<?xml version="1.0" encoding="UTF-8" standalone="no"?>
<!DOCTYPE svg PUBLIC "-//W3C//DTD SVG 1.1//EN"
 "http://www.w3.org/Graphics/SVG/1.1/DTD/svg11.dtd">
<!-- Generated by graphviz version 2.36.0 (20140111.2315)
 -->
<!-- Title: models_diagram Pages: 1 -->
<svg width="596pt" height="378pt"
 viewBox="0.00 0.00 596.00 378.00" xmlns="http://www.w3.org/2000/svg" xmlns:xlink="http://www.w3.org/1999/xlink">
<g id="graph0" class="graph" transform="scale(1 1) rotate(0) translate(4 374)">
<title>models_diagram</title>
<polygon fill="white" stroke="none" points="-4,4 -4,-374 592,-374 592,4 -4,4"/>
<!-- _diagram_info -->
<g id="node1" class="node"><title>_diagram_info</title>
<text text-anchor="start" x="7.31226" y="-355.1" font-family="Times,serif" font-size="13.00">Models diagram</text>
<text text-anchor="start" x="7.31226" y="-342.1" font-family="Times,serif" font-size="13.00">Date: Mar 02 2014 &#45; 15:36</text>
<text text-anchor="start" x="7.31226" y="-329.1" font-family="Times,serif" font-size="13.00">Migration version: 20140302044938</text>
<text text-anchor="start" x="7.31226" y="-316.1" font-family="Times,serif" font-size="13.00">Generated by RailRoady 1.1.1</text>
<text text-anchor="start" x="7.31226" y="-303.1" font-family="Times,serif" font-size="13.00">http://railroady.prestonlee.com</text>
</g>
<!-- Coupon -->
<g id="node2" class="node"><title>Coupon</title>
<ellipse fill="none" stroke="black" cx="182" cy="-240" rx="38.1712" ry="18"/>
<text text-anchor="middle" x="182" y="-235.8" font-family="Times,serif" font-size="14.00">Coupon</text>
</g>
<!-- Order -->
<g id="node3" class="node"><title>Order</title>
<ellipse fill="none" stroke="black" cx="317" cy="-166" rx="30.5941" ry="18"/>
<text text-anchor="middle" x="317" y="-161.8" font-family="Times,serif" font-size="14.00">Order</text>
</g>
<!-- OrderedPack -->
<g id="node4" class="node"><title>OrderedPack</title>
<ellipse fill="none" stroke="black" cx="308" cy="-18" rx="55.9025" ry="18"/>
<text text-anchor="middle" x="308" y="-13.8" font-family="Times,serif" font-size="14.00">OrderedPack</text>
</g>
<!-- Order&#45;&gt;OrderedPack -->
<g id="edge2" class="edge"><title>Order&#45;&gt;OrderedPack</title>
<path fill="none" stroke="#c36503" d="M315.447,-139.8C313.846,-113.827 311.356,-73.4489 309.703,-46.6216"/>
<ellipse fill="none" stroke="#c36503" cx="315.704" cy="-143.974" rx="4" ry="4"/>
<polygon fill="#c36503" stroke="#c36503" points="309.687,-46.3589 313.563,-36.1009 309.379,-41.3684 309.071,-36.3779 309.071,-36.3779 309.071,-36.3779 309.379,-41.3684 304.58,-36.6548 309.687,-46.3589 309.687,-46.3589"/>
</g>
<!-- Pack -->
<g id="node5" class="node"><title>Pack</title>
<ellipse fill="none" stroke="black" cx="370" cy="-92" rx="26.9483" ry="18"/>
<text text-anchor="middle" x="370" y="-87.8" font-family="Times,serif" font-size="14.00">Pack</text>
</g>
<!-- Order&#45;&gt;Pack -->
<g id="edge3" class="edge"><title>Order&#45;&gt;Pack</title>
<path fill="none" stroke="#36596d" d="M328.997,-139.918C334.551,-131.782 341.21,-122.825 347.583,-114.936"/>
<polygon fill="#36596d" stroke="#36596d" points="328.981,-139.942 319.73,-145.831 326.236,-144.121 323.492,-148.301 323.492,-148.301 323.492,-148.301 326.236,-144.121 327.253,-150.771 328.981,-139.942 328.981,-139.942"/>
<polygon fill="#36596d" stroke="#36596d" points="347.65,-114.856 357.516,-110.067 350.856,-111.019 354.062,-107.182 354.062,-107.182 354.062,-107.182 350.856,-111.019 350.609,-104.296 347.65,-114.856 347.65,-114.856"/>
</g>
<!-- Pack&#45;&gt;Order -->
<g id="edge8" class="edge"><title>Pack&#45;&gt;Order</title>
<path fill="none" stroke="#c32b02" d="M359.112,-116.447C353.076,-125.41 345.541,-135.56 338.451,-144.253"/>
<ellipse fill="none" stroke="#c32b02" cx="361.411" cy="-112.916" rx="4.00002" ry="4.00002"/>
<ellipse fill="#c32b02" stroke="#c32b02" cx="335.844" cy="-147.364" rx="4.00002" ry="4.00002"/>
</g>
<!-- Pack&#45;&gt;OrderedPack -->
<g id="edge7" class="edge"><title>Pack&#45;&gt;OrderedPack</title>
<path fill="none" stroke="#bf23fa" d="M351.871,-69.9471C344.302,-61.1571 335.488,-50.9215 327.754,-41.9403"/>
<ellipse fill="none" stroke="#bf23fa" cx="354.543" cy="-73.0505" rx="4.00002" ry="4.00002"/>
<ellipse fill="#bf23fa" stroke="#bf23fa" cx="324.957" cy="-38.6921" rx="4.00002" ry="4.00002"/>
</g>
<!-- PackItem -->
<g id="node6" class="node"><title>PackItem</title>
<ellipse fill="none" stroke="black" cx="507" cy="-18" rx="43.2545" ry="18"/>
<text text-anchor="middle" x="507" y="-13.8" font-family="Times,serif" font-size="14.00">PackItem</text>
</g>
<!-- Pack&#45;&gt;PackItem -->
<g id="edge6" class="edge"><title>Pack&#45;&gt;PackItem</title>
<path fill="none" stroke="#39a901" d="M398.021,-76.2734C419.496,-64.9878 449.246,-49.3525 472.238,-37.2692"/>
<ellipse fill="none" stroke="#39a901" cx="394.348" cy="-78.2039" rx="4.00002" ry="4.00002"/>
<polygon fill="#39a901" stroke="#39a901" points="472.465,-37.1499 483.41,-36.4812 476.891,-34.8239 481.317,-32.4978 481.317,-32.4978 481.317,-32.4978 476.891,-34.8239 479.223,-28.5144 472.465,-37.1499 472.465,-37.1499"/>
</g>
<!-- User -->
<g id="node7" class="node"><title>User</title>
<ellipse fill="none" stroke="black" cx="341" cy="-240" rx="27" ry="18"/>
<text text-anchor="middle" x="341" y="-235.8" font-family="Times,serif" font-size="14.00">User</text>
</g>
<!-- User&#45;&gt;Order -->
<g id="edge14" class="edge"><title>User&#45;&gt;Order</title>
<path fill="none" stroke="#0902fc" d="M332.873,-214.619C330.628,-207.884 328.18,-200.541 325.894,-193.683"/>
<ellipse fill="none" stroke="#0902fc" cx="334.169" cy="-218.506" rx="4.00001" ry="4.00001"/>
<polygon fill="#0902fc" stroke="#0902fc" points="325.865,-193.595 326.972,-182.686 324.284,-188.852 322.703,-184.109 322.703,-184.109 322.703,-184.109 324.284,-188.852 318.434,-185.532 325.865,-193.595 325.865,-193.595"/>
</g>
<!-- User&#45;&gt;Pack -->
<g id="edge13" class="edge"><title>User&#45;&gt;Pack</title>
<path fill="none" stroke="#38b970" d="M348.349,-214.406C351.003,-204.957 353.867,-194.034 356,-184 360.507,-162.795 364.168,-138.518 366.614,-120.375"/>
<ellipse fill="none" stroke="#38b970" cx="347.197" cy="-218.426" rx="4.00001" ry="4.00001"/>
<polygon fill="#38b970" stroke="#38b970" points="366.647,-120.128 372.406,-110.797 367.296,-115.171 367.944,-110.213 367.944,-110.213 367.944,-110.213 367.296,-115.171 363.482,-109.629 366.647,-120.128 366.647,-120.128"/>
</g>
<!-- User&#45;&gt;User -->
<g id="edge11" class="edge"><title>User&#45;&gt;User</title>
<path fill="none" stroke="#e59557" d="M376.052,-243.14C381.936,-242.703 386,-241.656 386,-240 386,-238.528 382.789,-237.537 377.943,-237.028"/>
<ellipse fill="none" stroke="#e59557" cx="371.793" cy="-243.257" rx="4" ry="4"/>
<polygon fill="#e59557" stroke="#e59557" points="377.787,-237.022 367.97,-232.136 372.791,-236.827 367.795,-236.632 367.795,-236.632 367.795,-236.632 372.791,-236.827 367.619,-241.129 377.787,-237.022 377.787,-237.022"/>
<text text-anchor="middle" x="415.555" y="-235.8" font-family="Times,serif" font-size="14.00">invitations</text>
</g>
<!-- User&#45;&gt;User -->
<g id="edge12" class="edge"><title>User&#45;&gt;User</title>
<path fill="none" stroke="#a2bad4" d="M375.056,-245.845C406.329,-248.096 445.11,-246.148 445.11,-240 445.11,-233.852 406.329,-231.904 375.056,-234.155"/>
<ellipse fill="none" stroke="#a2bad4" cx="370.87" cy="-245.484" rx="4" ry="4"/>
<ellipse fill="#a2bad4" stroke="#a2bad4" cx="370.87" cy="-234.516" rx="4" ry="4"/>
<text text-anchor="middle" x="475.052" y="-235.8" font-family="Times,serif" font-size="14.00">invited_by</text>
</g>
<!-- ActiveRecord::Base -->
<g id="node8" class="node"><title>ActiveRecord::Base</title>
<ellipse fill="none" stroke="black" cx="306" cy="-333" rx="80.9821" ry="18"/>
<text text-anchor="middle" x="306" y="-328.8" font-family="Times,serif" font-size="14.00">ActiveRecord::Base</text>
</g>
<!-- ActiveRecord::Base&#45;&gt;Coupon -->
<g id="edge1" class="edge"><title>ActiveRecord::Base&#45;&gt;Coupon</title>
<path fill="none" stroke="black" d="M283.545,-315.521C260.234,-298.414 224.124,-271.914 201.834,-255.555"/>
</g>
<!-- ActiveRecord::Base&#45;&gt;Order -->
<g id="edge4" class="edge"><title>ActiveRecord::Base&#45;&gt;Order</title>
<path fill="none" stroke="black" d="M304.61,-314.791C303.14,-293.088 301.479,-254.659 305,-222 306.383,-209.174 309.53,-194.952 312.255,-184.183"/>
</g>
<!-- ActiveRecord::Base&#45;&gt;OrderedPack -->
<g id="edge5" class="edge"><title>ActiveRecord::Base&#45;&gt;OrderedPack</title>
<path fill="none" stroke="black" d="M287.009,-315.217C270.093,-298.327 248,-270.601 248,-241 248,-241 248,-241 248,-91 248,-67.4065 267.249,-47.4413 283.941,-34.5633"/>
</g>
<!-- ActiveRecord::Base&#45;&gt;Pack -->
<g id="edge9" class="edge"><title>ActiveRecord::Base&#45;&gt;Pack</title>
<path fill="none" stroke="black" d="M384.688,-328.553C435.399,-321.751 497.848,-303.802 531,-258 578.99,-191.698 447.57,-126.033 392.752,-102.296"/>
</g>
<!-- ActiveRecord::Base&#45;&gt;PackItem -->
<g id="edge10" class="edge"><title>ActiveRecord::Base&#45;&gt;PackItem</title>
<path fill="none" stroke="black" d="M375.346,-323.591C458.844,-311.488 588,-285.564 588,-241 588,-241 588,-241 588,-91 588,-62.7775 560.191,-42.909 537.161,-31.2941"/>
</g>
<!-- ActiveRecord::Base&#45;&gt;User -->
<g id="edge15" class="edge"><title>ActiveRecord::Base&#45;&gt;User</title>
<path fill="none" stroke="black" d="M312.583,-314.884C318.88,-298.511 328.317,-273.975 334.565,-257.732"/>
</g>
</g>
</svg>
